<mxfile host="Electron" modified="2024-03-13T04:00:01.005Z" agent="Mozilla/5.0 (Macintosh; Intel Mac OS X 10_15_7) AppleWebKit/537.36 (KHTML, like Gecko) draw.io/24.0.4 Chrome/120.0.6099.109 Electron/28.1.0 Safari/537.36" etag="Qb4EaXZLh6TuW4rI4wMO" version="24.0.4" type="device">
  <diagram name="Page-1" id="7HknB6531hBOHP6SLGoX">
    <mxGraphModel dx="1758" dy="996" grid="0" gridSize="10" guides="0" tooltips="0" connect="0" arrows="0" fold="1" page="0" pageScale="1" pageWidth="850" pageHeight="1100" math="0" shadow="0">
      <root>
        <mxCell id="0" />
        <mxCell id="1" parent="0" />
        <mxCell id="XDJdw9ZEP_axK00QsI53-1" value="" style="strokeWidth=5;html=1;shape=mxgraph.flowchart.annotation_1;align=center;pointerEvents=1;rotation=-90;fillColor=#1ba1e2;fontColor=#ffffff;strokeColor=#006EAF;fontStyle=0;labelBorderColor=none;" parent="1" vertex="1">
          <mxGeometry y="516.25" width="205" height="42.5" as="geometry" />
        </mxCell>
        <mxCell id="XDJdw9ZEP_axK00QsI53-2" value="&lt;font style=&quot;font-size: 20px;&quot;&gt;1&lt;/font&gt;" style="text;html=1;align=center;verticalAlign=middle;resizable=0;points=[];autosize=1;strokeColor=none;fillColor=none;" parent="1" vertex="1">
          <mxGeometry x="87.5" y="600" width="30" height="40" as="geometry" />
        </mxCell>
        <mxCell id="XDJdw9ZEP_axK00QsI53-3" value="&lt;font style=&quot;font-size: 18px;&quot;&gt;a&lt;/font&gt;" style="text;html=1;align=center;verticalAlign=middle;resizable=0;points=[];autosize=1;strokeColor=none;fillColor=none;" parent="1" vertex="1">
          <mxGeometry x="87.5" y="320" width="30" height="40" as="geometry" />
        </mxCell>
        <mxCell id="XDJdw9ZEP_axK00QsI53-4" value="" style="endArrow=classic;html=1;rounded=0;fontSize=12;fontStyle=1;horizontal=0;strokeWidth=3;" parent="1" edge="1">
          <mxGeometry width="50" height="50" relative="1" as="geometry">
            <mxPoint x="100" y="360" as="sourcePoint" />
            <mxPoint x="100" y="420" as="targetPoint" />
          </mxGeometry>
        </mxCell>
        <mxCell id="yvvdC9rSGpjuioBhzgut-3" value="" style="strokeWidth=5;html=1;shape=mxgraph.flowchart.annotation_1;align=center;pointerEvents=1;rotation=-90;fillColor=#1ba1e2;fontColor=#ffffff;strokeColor=#006EAF;fontStyle=0;labelBorderColor=none;" vertex="1" parent="1">
          <mxGeometry x="60" y="516.25" width="205" height="42.5" as="geometry" />
        </mxCell>
        <mxCell id="yvvdC9rSGpjuioBhzgut-4" value="&lt;font style=&quot;font-size: 20px;&quot;&gt;-3&lt;/font&gt;" style="text;html=1;align=center;verticalAlign=middle;resizable=0;points=[];autosize=1;strokeColor=none;fillColor=none;" vertex="1" parent="1">
          <mxGeometry x="140" y="580" width="40" height="40" as="geometry" />
        </mxCell>
        <mxCell id="yvvdC9rSGpjuioBhzgut-5" value="&lt;font style=&quot;font-size: 18px;&quot;&gt;b&lt;/font&gt;" style="text;html=1;align=center;verticalAlign=middle;resizable=0;points=[];autosize=1;strokeColor=none;fillColor=none;" vertex="1" parent="1">
          <mxGeometry x="147.5" y="320" width="30" height="40" as="geometry" />
        </mxCell>
        <mxCell id="yvvdC9rSGpjuioBhzgut-6" value="" style="endArrow=classic;html=1;rounded=0;fontSize=12;fontStyle=1;horizontal=0;strokeWidth=3;" edge="1" parent="1">
          <mxGeometry width="50" height="50" relative="1" as="geometry">
            <mxPoint x="160" y="360" as="sourcePoint" />
            <mxPoint x="160" y="420" as="targetPoint" />
          </mxGeometry>
        </mxCell>
        <mxCell id="yvvdC9rSGpjuioBhzgut-7" value="&lt;span style=&quot;font-size: 20px;&quot;&gt;1&lt;/span&gt;" style="text;html=1;align=center;verticalAlign=middle;resizable=0;points=[];autosize=1;strokeColor=none;fillColor=none;" vertex="1" parent="1">
          <mxGeometry x="147.5" y="600" width="30" height="40" as="geometry" />
        </mxCell>
        <mxCell id="yvvdC9rSGpjuioBhzgut-12" value="" style="strokeWidth=5;html=1;shape=mxgraph.flowchart.annotation_1;align=center;pointerEvents=1;rotation=-90;fillColor=#1ba1e2;fontColor=#ffffff;strokeColor=#006EAF;fontStyle=0;labelBorderColor=none;" vertex="1" parent="1">
          <mxGeometry x="120" y="516.25" width="205" height="42.5" as="geometry" />
        </mxCell>
        <mxCell id="yvvdC9rSGpjuioBhzgut-13" value="&lt;font style=&quot;font-size: 20px;&quot;&gt;-3&lt;/font&gt;" style="text;html=1;align=center;verticalAlign=middle;resizable=0;points=[];autosize=1;strokeColor=none;fillColor=none;" vertex="1" parent="1">
          <mxGeometry x="200" y="580" width="40" height="40" as="geometry" />
        </mxCell>
        <mxCell id="yvvdC9rSGpjuioBhzgut-16" value="&lt;span style=&quot;font-size: 20px;&quot;&gt;1&lt;/span&gt;" style="text;html=1;align=center;verticalAlign=middle;resizable=0;points=[];autosize=1;strokeColor=none;fillColor=none;" vertex="1" parent="1">
          <mxGeometry x="207.5" y="600" width="30" height="40" as="geometry" />
        </mxCell>
        <mxCell id="yvvdC9rSGpjuioBhzgut-51" value="&lt;font style=&quot;font-size: 18px;&quot;&gt;c&lt;/font&gt;" style="text;html=1;align=center;verticalAlign=middle;resizable=0;points=[];autosize=1;strokeColor=none;fillColor=none;" vertex="1" parent="1">
          <mxGeometry x="207.5" y="320" width="30" height="40" as="geometry" />
        </mxCell>
        <mxCell id="yvvdC9rSGpjuioBhzgut-53" value="&lt;font style=&quot;font-size: 20px;&quot;&gt;2&lt;/font&gt;" style="text;html=1;align=center;verticalAlign=middle;resizable=0;points=[];autosize=1;strokeColor=none;fillColor=none;" vertex="1" parent="1">
          <mxGeometry x="207.5" y="558.75" width="30" height="40" as="geometry" />
        </mxCell>
        <mxCell id="yvvdC9rSGpjuioBhzgut-54" value="" style="endArrow=classic;html=1;rounded=0;fontSize=12;fontStyle=1;horizontal=0;strokeWidth=3;" edge="1" parent="1">
          <mxGeometry width="50" height="50" relative="1" as="geometry">
            <mxPoint x="220" y="360" as="sourcePoint" />
            <mxPoint x="220" y="420" as="targetPoint" />
          </mxGeometry>
        </mxCell>
        <mxCell id="yvvdC9rSGpjuioBhzgut-55" value="" style="strokeWidth=5;html=1;shape=mxgraph.flowchart.annotation_1;align=center;pointerEvents=1;rotation=-90;fillColor=#1ba1e2;fontColor=#ffffff;strokeColor=#006EAF;fontStyle=0;labelBorderColor=none;" vertex="1" parent="1">
          <mxGeometry x="180" y="516.25" width="205" height="42.5" as="geometry" />
        </mxCell>
        <mxCell id="yvvdC9rSGpjuioBhzgut-56" value="&lt;font style=&quot;font-size: 20px;&quot;&gt;-3&lt;/font&gt;" style="text;html=1;align=center;verticalAlign=middle;resizable=0;points=[];autosize=1;strokeColor=none;fillColor=none;" vertex="1" parent="1">
          <mxGeometry x="260" y="580" width="40" height="40" as="geometry" />
        </mxCell>
        <mxCell id="yvvdC9rSGpjuioBhzgut-57" value="&lt;span style=&quot;font-size: 20px;&quot;&gt;1&lt;/span&gt;" style="text;html=1;align=center;verticalAlign=middle;resizable=0;points=[];autosize=1;strokeColor=none;fillColor=none;" vertex="1" parent="1">
          <mxGeometry x="267.5" y="600" width="30" height="40" as="geometry" />
        </mxCell>
        <mxCell id="yvvdC9rSGpjuioBhzgut-58" value="&lt;font style=&quot;font-size: 18px;&quot;&gt;d&lt;/font&gt;" style="text;html=1;align=center;verticalAlign=middle;resizable=0;points=[];autosize=1;strokeColor=none;fillColor=none;" vertex="1" parent="1">
          <mxGeometry x="267.5" y="320" width="30" height="40" as="geometry" />
        </mxCell>
        <mxCell id="yvvdC9rSGpjuioBhzgut-59" value="&lt;font style=&quot;font-size: 20px;&quot;&gt;2&lt;/font&gt;" style="text;html=1;align=center;verticalAlign=middle;resizable=0;points=[];autosize=1;strokeColor=none;fillColor=none;" vertex="1" parent="1">
          <mxGeometry x="267.5" y="558.75" width="30" height="40" as="geometry" />
        </mxCell>
        <mxCell id="yvvdC9rSGpjuioBhzgut-60" value="" style="endArrow=classic;html=1;rounded=0;fontSize=12;fontStyle=1;horizontal=0;strokeWidth=3;" edge="1" parent="1">
          <mxGeometry width="50" height="50" relative="1" as="geometry">
            <mxPoint x="280" y="360" as="sourcePoint" />
            <mxPoint x="280" y="420" as="targetPoint" />
          </mxGeometry>
        </mxCell>
        <mxCell id="yvvdC9rSGpjuioBhzgut-61" value="&lt;font style=&quot;font-size: 20px;&quot;&gt;-2&lt;/font&gt;" style="text;html=1;align=center;verticalAlign=middle;resizable=0;points=[];autosize=1;strokeColor=none;fillColor=none;" vertex="1" parent="1">
          <mxGeometry x="262.5" y="540" width="40" height="40" as="geometry" />
        </mxCell>
        <mxCell id="yvvdC9rSGpjuioBhzgut-62" value="" style="strokeWidth=5;html=1;shape=mxgraph.flowchart.annotation_1;align=center;pointerEvents=1;rotation=-90;fillColor=#1ba1e2;fontColor=#ffffff;strokeColor=#006EAF;fontStyle=0;labelBorderColor=none;" vertex="1" parent="1">
          <mxGeometry x="240" y="516.25" width="205" height="42.5" as="geometry" />
        </mxCell>
        <mxCell id="yvvdC9rSGpjuioBhzgut-63" value="&lt;font style=&quot;font-size: 20px;&quot;&gt;-3&lt;/font&gt;" style="text;html=1;align=center;verticalAlign=middle;resizable=0;points=[];autosize=1;strokeColor=none;fillColor=none;" vertex="1" parent="1">
          <mxGeometry x="320" y="580" width="40" height="40" as="geometry" />
        </mxCell>
        <mxCell id="yvvdC9rSGpjuioBhzgut-64" value="&lt;span style=&quot;font-size: 20px;&quot;&gt;1&lt;/span&gt;" style="text;html=1;align=center;verticalAlign=middle;resizable=0;points=[];autosize=1;strokeColor=none;fillColor=none;" vertex="1" parent="1">
          <mxGeometry x="327.5" y="600" width="30" height="40" as="geometry" />
        </mxCell>
        <mxCell id="yvvdC9rSGpjuioBhzgut-65" value="&lt;font style=&quot;font-size: 18px;&quot;&gt;e&lt;/font&gt;" style="text;html=1;align=center;verticalAlign=middle;resizable=0;points=[];autosize=1;strokeColor=none;fillColor=none;" vertex="1" parent="1">
          <mxGeometry x="327.5" y="320" width="30" height="40" as="geometry" />
        </mxCell>
        <mxCell id="yvvdC9rSGpjuioBhzgut-66" value="&lt;font style=&quot;font-size: 20px;&quot;&gt;2&lt;/font&gt;" style="text;html=1;align=center;verticalAlign=middle;resizable=0;points=[];autosize=1;strokeColor=none;fillColor=none;" vertex="1" parent="1">
          <mxGeometry x="327.5" y="558.75" width="30" height="40" as="geometry" />
        </mxCell>
        <mxCell id="yvvdC9rSGpjuioBhzgut-67" value="" style="endArrow=classic;html=1;rounded=0;fontSize=12;fontStyle=1;horizontal=0;strokeWidth=3;" edge="1" parent="1">
          <mxGeometry width="50" height="50" relative="1" as="geometry">
            <mxPoint x="340" y="360" as="sourcePoint" />
            <mxPoint x="340" y="420" as="targetPoint" />
          </mxGeometry>
        </mxCell>
        <mxCell id="yvvdC9rSGpjuioBhzgut-68" value="&lt;font style=&quot;font-size: 20px;&quot;&gt;-2&lt;/font&gt;" style="text;html=1;align=center;verticalAlign=middle;resizable=0;points=[];autosize=1;strokeColor=none;fillColor=none;" vertex="1" parent="1">
          <mxGeometry x="322.5" y="540" width="40" height="40" as="geometry" />
        </mxCell>
        <mxCell id="yvvdC9rSGpjuioBhzgut-69" value="&lt;font style=&quot;font-size: 20px;&quot;&gt;-1&lt;/font&gt;" style="text;html=1;align=center;verticalAlign=middle;resizable=0;points=[];autosize=1;strokeColor=none;fillColor=none;" vertex="1" parent="1">
          <mxGeometry x="322.5" y="518.75" width="40" height="40" as="geometry" />
        </mxCell>
        <mxCell id="yvvdC9rSGpjuioBhzgut-79" value="" style="strokeWidth=5;html=1;shape=mxgraph.flowchart.annotation_1;align=center;pointerEvents=1;rotation=-90;fillColor=#1ba1e2;fontColor=#ffffff;strokeColor=#006EAF;fontStyle=0;labelBorderColor=none;" vertex="1" parent="1">
          <mxGeometry x="297.5" y="516.25" width="205" height="42.5" as="geometry" />
        </mxCell>
        <mxCell id="yvvdC9rSGpjuioBhzgut-80" value="&lt;font style=&quot;font-size: 20px;&quot;&gt;-3&lt;/font&gt;" style="text;html=1;align=center;verticalAlign=middle;resizable=0;points=[];autosize=1;strokeColor=none;fillColor=none;" vertex="1" parent="1">
          <mxGeometry x="377.5" y="580" width="40" height="40" as="geometry" />
        </mxCell>
        <mxCell id="yvvdC9rSGpjuioBhzgut-81" value="&lt;span style=&quot;font-size: 20px;&quot;&gt;1&lt;/span&gt;" style="text;html=1;align=center;verticalAlign=middle;resizable=0;points=[];autosize=1;strokeColor=none;fillColor=none;" vertex="1" parent="1">
          <mxGeometry x="385" y="600" width="30" height="40" as="geometry" />
        </mxCell>
        <mxCell id="yvvdC9rSGpjuioBhzgut-82" value="&lt;span style=&quot;font-size: 18px;&quot;&gt;-&lt;/span&gt;" style="text;html=1;align=center;verticalAlign=middle;resizable=0;points=[];autosize=1;strokeColor=none;fillColor=none;" vertex="1" parent="1">
          <mxGeometry x="385" y="320" width="30" height="40" as="geometry" />
        </mxCell>
        <mxCell id="yvvdC9rSGpjuioBhzgut-83" value="&lt;font style=&quot;font-size: 20px;&quot;&gt;2&lt;/font&gt;" style="text;html=1;align=center;verticalAlign=middle;resizable=0;points=[];autosize=1;strokeColor=none;fillColor=none;" vertex="1" parent="1">
          <mxGeometry x="385" y="558.75" width="30" height="40" as="geometry" />
        </mxCell>
        <mxCell id="yvvdC9rSGpjuioBhzgut-84" value="&lt;font style=&quot;font-size: 20px;&quot;&gt;-2&lt;/font&gt;" style="text;html=1;align=center;verticalAlign=middle;resizable=0;points=[];autosize=1;strokeColor=none;fillColor=none;" vertex="1" parent="1">
          <mxGeometry x="380" y="540" width="40" height="40" as="geometry" />
        </mxCell>
        <mxCell id="yvvdC9rSGpjuioBhzgut-85" value="&lt;font style=&quot;font-size: 20px;&quot;&gt;-1&lt;/font&gt;" style="text;html=1;align=center;verticalAlign=middle;resizable=0;points=[];autosize=1;strokeColor=none;fillColor=none;" vertex="1" parent="1">
          <mxGeometry x="380" y="518.75" width="40" height="40" as="geometry" />
        </mxCell>
        <mxCell id="yvvdC9rSGpjuioBhzgut-86" value="" style="endArrow=classic;html=1;rounded=0;fontSize=12;fontStyle=1;horizontal=0;strokeWidth=3;entryX=0.383;entryY=1.05;entryDx=0;entryDy=0;entryPerimeter=0;" edge="1" parent="1" target="yvvdC9rSGpjuioBhzgut-82">
          <mxGeometry width="50" height="50" relative="1" as="geometry">
            <mxPoint x="397" y="420" as="sourcePoint" />
            <mxPoint x="397.5" y="370" as="targetPoint" />
          </mxGeometry>
        </mxCell>
        <mxCell id="yvvdC9rSGpjuioBhzgut-96" value="" style="strokeWidth=5;html=1;shape=mxgraph.flowchart.annotation_1;align=center;pointerEvents=1;rotation=-90;fillColor=#1ba1e2;fontColor=#ffffff;strokeColor=#006EAF;fontStyle=0;labelBorderColor=none;" vertex="1" parent="1">
          <mxGeometry x="350" y="516.25" width="205" height="42.5" as="geometry" />
        </mxCell>
        <mxCell id="yvvdC9rSGpjuioBhzgut-97" value="&lt;font style=&quot;font-size: 20px;&quot;&gt;-3&lt;/font&gt;" style="text;html=1;align=center;verticalAlign=middle;resizable=0;points=[];autosize=1;strokeColor=none;fillColor=none;" vertex="1" parent="1">
          <mxGeometry x="430" y="580" width="40" height="40" as="geometry" />
        </mxCell>
        <mxCell id="yvvdC9rSGpjuioBhzgut-98" value="&lt;span style=&quot;font-size: 20px;&quot;&gt;1&lt;/span&gt;" style="text;html=1;align=center;verticalAlign=middle;resizable=0;points=[];autosize=1;strokeColor=none;fillColor=none;" vertex="1" parent="1">
          <mxGeometry x="437.5" y="600" width="30" height="40" as="geometry" />
        </mxCell>
        <mxCell id="yvvdC9rSGpjuioBhzgut-99" value="&lt;font style=&quot;font-size: 20px;&quot;&gt;2&lt;/font&gt;" style="text;html=1;align=center;verticalAlign=middle;resizable=0;points=[];autosize=1;strokeColor=none;fillColor=none;" vertex="1" parent="1">
          <mxGeometry x="437.5" y="558.75" width="30" height="40" as="geometry" />
        </mxCell>
        <mxCell id="yvvdC9rSGpjuioBhzgut-100" value="&lt;font style=&quot;font-size: 20px;&quot;&gt;-2&lt;/font&gt;" style="text;html=1;align=center;verticalAlign=middle;resizable=0;points=[];autosize=1;strokeColor=none;fillColor=none;" vertex="1" parent="1">
          <mxGeometry x="432.5" y="540" width="40" height="40" as="geometry" />
        </mxCell>
        <mxCell id="yvvdC9rSGpjuioBhzgut-101" value="" style="endArrow=classic;html=1;rounded=0;fontSize=12;fontStyle=1;horizontal=0;strokeWidth=3;entryX=1.117;entryY=1.05;entryDx=0;entryDy=0;entryPerimeter=0;" edge="1" parent="1">
          <mxGeometry width="50" height="50" relative="1" as="geometry">
            <mxPoint x="449.5" y="420" as="sourcePoint" />
            <mxPoint x="448.5" y="362" as="targetPoint" />
          </mxGeometry>
        </mxCell>
        <mxCell id="yvvdC9rSGpjuioBhzgut-102" value="&lt;font style=&quot;font-size: 20px;&quot;&gt;-1&lt;/font&gt;" style="text;html=1;align=center;verticalAlign=middle;resizable=0;points=[];autosize=1;strokeColor=none;fillColor=none;" vertex="1" parent="1">
          <mxGeometry x="432.5" y="320" width="40" height="40" as="geometry" />
        </mxCell>
        <mxCell id="yvvdC9rSGpjuioBhzgut-103" value="&lt;span style=&quot;font-size: 18px;&quot;&gt;-&lt;/span&gt;" style="text;html=1;align=center;verticalAlign=middle;resizable=0;points=[];autosize=1;strokeColor=none;fillColor=none;" vertex="1" parent="1">
          <mxGeometry x="420" y="320" width="30" height="40" as="geometry" />
        </mxCell>
        <mxCell id="yvvdC9rSGpjuioBhzgut-104" value="" style="strokeWidth=5;html=1;shape=mxgraph.flowchart.annotation_1;align=center;pointerEvents=1;rotation=-90;fillColor=#1ba1e2;fontColor=#ffffff;strokeColor=#006EAF;fontStyle=0;labelBorderColor=none;" vertex="1" parent="1">
          <mxGeometry x="407.5" y="516.25" width="205" height="42.5" as="geometry" />
        </mxCell>
        <mxCell id="yvvdC9rSGpjuioBhzgut-105" value="&lt;font style=&quot;font-size: 20px;&quot;&gt;-3&lt;/font&gt;" style="text;html=1;align=center;verticalAlign=middle;resizable=0;points=[];autosize=1;strokeColor=none;fillColor=none;" vertex="1" parent="1">
          <mxGeometry x="487.5" y="580" width="40" height="40" as="geometry" />
        </mxCell>
        <mxCell id="yvvdC9rSGpjuioBhzgut-106" value="&lt;span style=&quot;font-size: 20px;&quot;&gt;1&lt;/span&gt;" style="text;html=1;align=center;verticalAlign=middle;resizable=0;points=[];autosize=1;strokeColor=none;fillColor=none;" vertex="1" parent="1">
          <mxGeometry x="495" y="600" width="30" height="40" as="geometry" />
        </mxCell>
        <mxCell id="yvvdC9rSGpjuioBhzgut-107" value="&lt;font style=&quot;font-size: 20px;&quot;&gt;2&lt;/font&gt;" style="text;html=1;align=center;verticalAlign=middle;resizable=0;points=[];autosize=1;strokeColor=none;fillColor=none;" vertex="1" parent="1">
          <mxGeometry x="495" y="558.75" width="30" height="40" as="geometry" />
        </mxCell>
        <mxCell id="yvvdC9rSGpjuioBhzgut-108" value="&lt;font style=&quot;font-size: 20px;&quot;&gt;-2&lt;/font&gt;" style="text;html=1;align=center;verticalAlign=middle;resizable=0;points=[];autosize=1;strokeColor=none;fillColor=none;" vertex="1" parent="1">
          <mxGeometry x="475" y="320" width="40" height="40" as="geometry" />
        </mxCell>
        <mxCell id="yvvdC9rSGpjuioBhzgut-110" value="&lt;font style=&quot;font-size: 20px;&quot;&gt;-1&lt;/font&gt;" style="text;html=1;align=center;verticalAlign=middle;resizable=0;points=[];autosize=1;strokeColor=none;fillColor=none;" vertex="1" parent="1">
          <mxGeometry x="505" y="320" width="40" height="40" as="geometry" />
        </mxCell>
        <mxCell id="yvvdC9rSGpjuioBhzgut-111" value="" style="strokeWidth=5;html=1;shape=mxgraph.flowchart.annotation_1;align=center;pointerEvents=1;rotation=-90;fillColor=#1ba1e2;fontColor=#ffffff;strokeColor=#006EAF;fontStyle=0;labelBorderColor=none;" vertex="1" parent="1">
          <mxGeometry x="470" y="516.25" width="205" height="42.5" as="geometry" />
        </mxCell>
        <mxCell id="yvvdC9rSGpjuioBhzgut-112" value="&lt;font style=&quot;font-size: 20px;&quot;&gt;-3&lt;/font&gt;" style="text;html=1;align=center;verticalAlign=middle;resizable=0;points=[];autosize=1;strokeColor=none;fillColor=none;" vertex="1" parent="1">
          <mxGeometry x="550" y="580" width="40" height="40" as="geometry" />
        </mxCell>
        <mxCell id="yvvdC9rSGpjuioBhzgut-113" value="&lt;span style=&quot;font-size: 20px;&quot;&gt;1&lt;/span&gt;" style="text;html=1;align=center;verticalAlign=middle;resizable=0;points=[];autosize=1;strokeColor=none;fillColor=none;" vertex="1" parent="1">
          <mxGeometry x="557.5" y="600" width="30" height="40" as="geometry" />
        </mxCell>
        <mxCell id="yvvdC9rSGpjuioBhzgut-114" value="&lt;font style=&quot;font-size: 20px;&quot;&gt;2&lt;/font&gt;" style="text;html=1;align=center;verticalAlign=middle;resizable=0;points=[];autosize=1;strokeColor=none;fillColor=none;" vertex="1" parent="1">
          <mxGeometry x="557.5" y="558.75" width="30" height="40" as="geometry" />
        </mxCell>
        <mxCell id="yvvdC9rSGpjuioBhzgut-115" value="&lt;font style=&quot;font-size: 20px;&quot;&gt;-2&lt;/font&gt;" style="text;html=1;align=center;verticalAlign=middle;resizable=0;points=[];autosize=1;strokeColor=none;fillColor=none;" vertex="1" parent="1">
          <mxGeometry x="532.5" y="320" width="40" height="40" as="geometry" />
        </mxCell>
        <mxCell id="yvvdC9rSGpjuioBhzgut-117" value="" style="endArrow=classic;html=1;rounded=0;fontSize=12;fontStyle=1;horizontal=0;strokeWidth=3;" edge="1" parent="1">
          <mxGeometry width="50" height="50" relative="1" as="geometry">
            <mxPoint x="569.5799999999999" y="360" as="sourcePoint" />
            <mxPoint x="569.5799999999999" y="420" as="targetPoint" />
          </mxGeometry>
        </mxCell>
        <mxCell id="yvvdC9rSGpjuioBhzgut-118" value="&lt;font style=&quot;font-size: 20px;&quot;&gt;-1&lt;/font&gt;" style="text;html=1;align=center;verticalAlign=middle;resizable=0;points=[];autosize=1;strokeColor=none;fillColor=none;" vertex="1" parent="1">
          <mxGeometry x="552.5" y="540" width="40" height="40" as="geometry" />
        </mxCell>
        <mxCell id="yvvdC9rSGpjuioBhzgut-119" value="&lt;span style=&quot;font-size: 18px;&quot;&gt;-&lt;/span&gt;" style="text;html=1;align=center;verticalAlign=middle;resizable=0;points=[];autosize=1;strokeColor=none;fillColor=none;" vertex="1" parent="1">
          <mxGeometry x="495" y="320" width="30" height="40" as="geometry" />
        </mxCell>
        <mxCell id="yvvdC9rSGpjuioBhzgut-120" value="&lt;span style=&quot;font-size: 18px;&quot;&gt;-&lt;/span&gt;" style="text;html=1;align=center;verticalAlign=middle;resizable=0;points=[];autosize=1;strokeColor=none;fillColor=none;" vertex="1" parent="1">
          <mxGeometry x="560" y="320" width="30" height="40" as="geometry" />
        </mxCell>
        <mxCell id="yvvdC9rSGpjuioBhzgut-129" value="" style="strokeWidth=5;html=1;shape=mxgraph.flowchart.annotation_1;align=center;pointerEvents=1;rotation=-90;fillColor=#1ba1e2;fontColor=#ffffff;strokeColor=#006EAF;fontStyle=0;labelBorderColor=none;" vertex="1" parent="1">
          <mxGeometry x="527.5" y="516.25" width="205" height="42.5" as="geometry" />
        </mxCell>
        <mxCell id="yvvdC9rSGpjuioBhzgut-130" value="&lt;font style=&quot;font-size: 20px;&quot;&gt;-3&lt;/font&gt;" style="text;html=1;align=center;verticalAlign=middle;resizable=0;points=[];autosize=1;strokeColor=none;fillColor=none;" vertex="1" parent="1">
          <mxGeometry x="607.5" y="580" width="40" height="40" as="geometry" />
        </mxCell>
        <mxCell id="yvvdC9rSGpjuioBhzgut-131" value="&lt;span style=&quot;font-size: 20px;&quot;&gt;1&lt;/span&gt;" style="text;html=1;align=center;verticalAlign=middle;resizable=0;points=[];autosize=1;strokeColor=none;fillColor=none;" vertex="1" parent="1">
          <mxGeometry x="615" y="600" width="30" height="40" as="geometry" />
        </mxCell>
        <mxCell id="yvvdC9rSGpjuioBhzgut-132" value="&lt;span style=&quot;font-size: 18px;&quot;&gt;/&lt;/span&gt;" style="text;html=1;align=center;verticalAlign=middle;resizable=0;points=[];autosize=1;strokeColor=none;fillColor=none;" vertex="1" parent="1">
          <mxGeometry x="615" y="320" width="30" height="40" as="geometry" />
        </mxCell>
        <mxCell id="yvvdC9rSGpjuioBhzgut-133" value="&lt;font style=&quot;font-size: 20px;&quot;&gt;2&lt;/font&gt;" style="text;html=1;align=center;verticalAlign=middle;resizable=0;points=[];autosize=1;strokeColor=none;fillColor=none;" vertex="1" parent="1">
          <mxGeometry x="615" y="558.75" width="30" height="40" as="geometry" />
        </mxCell>
        <mxCell id="yvvdC9rSGpjuioBhzgut-134" value="&lt;font style=&quot;font-size: 20px;&quot;&gt;-1&lt;/font&gt;" style="text;html=1;align=center;verticalAlign=middle;resizable=0;points=[];autosize=1;strokeColor=none;fillColor=none;" vertex="1" parent="1">
          <mxGeometry x="610" y="540" width="40" height="40" as="geometry" />
        </mxCell>
        <mxCell id="yvvdC9rSGpjuioBhzgut-135" value="" style="endArrow=classic;html=1;rounded=0;fontSize=12;fontStyle=1;horizontal=0;strokeWidth=3;entryX=0.383;entryY=1.05;entryDx=0;entryDy=0;entryPerimeter=0;" edge="1" target="yvvdC9rSGpjuioBhzgut-132" parent="1">
          <mxGeometry width="50" height="50" relative="1" as="geometry">
            <mxPoint x="627" y="420" as="sourcePoint" />
            <mxPoint x="627.5" y="370" as="targetPoint" />
          </mxGeometry>
        </mxCell>
        <mxCell id="yvvdC9rSGpjuioBhzgut-148" value="" style="strokeWidth=5;html=1;shape=mxgraph.flowchart.annotation_1;align=center;pointerEvents=1;rotation=-90;fillColor=#1ba1e2;fontColor=#ffffff;strokeColor=#006EAF;fontStyle=0;labelBorderColor=none;" vertex="1" parent="1">
          <mxGeometry x="580" y="516.25" width="205" height="42.5" as="geometry" />
        </mxCell>
        <mxCell id="yvvdC9rSGpjuioBhzgut-149" value="&lt;font style=&quot;font-size: 20px;&quot;&gt;-3&lt;/font&gt;" style="text;html=1;align=center;verticalAlign=middle;resizable=0;points=[];autosize=1;strokeColor=none;fillColor=none;" vertex="1" parent="1">
          <mxGeometry x="660" y="580" width="40" height="40" as="geometry" />
        </mxCell>
        <mxCell id="yvvdC9rSGpjuioBhzgut-150" value="&lt;span style=&quot;font-size: 20px;&quot;&gt;1&lt;/span&gt;" style="text;html=1;align=center;verticalAlign=middle;resizable=0;points=[];autosize=1;strokeColor=none;fillColor=none;" vertex="1" parent="1">
          <mxGeometry x="667.5" y="600" width="30" height="40" as="geometry" />
        </mxCell>
        <mxCell id="yvvdC9rSGpjuioBhzgut-151" value="&lt;span style=&quot;font-size: 18px;&quot;&gt;/&lt;/span&gt;" style="text;html=1;align=center;verticalAlign=middle;resizable=0;points=[];autosize=1;strokeColor=none;fillColor=none;" vertex="1" parent="1">
          <mxGeometry x="667.5" y="320" width="30" height="40" as="geometry" />
        </mxCell>
        <mxCell id="yvvdC9rSGpjuioBhzgut-152" value="&lt;font style=&quot;font-size: 20px;&quot;&gt;2&lt;/font&gt;" style="text;html=1;align=center;verticalAlign=middle;resizable=0;points=[];autosize=1;strokeColor=none;fillColor=none;" vertex="1" parent="1">
          <mxGeometry x="667.5" y="558.75" width="30" height="40" as="geometry" />
        </mxCell>
        <mxCell id="yvvdC9rSGpjuioBhzgut-153" value="&lt;font style=&quot;font-size: 20px;&quot;&gt;-1&lt;/font&gt;" style="text;html=1;align=center;verticalAlign=middle;resizable=0;points=[];autosize=1;strokeColor=none;fillColor=none;" vertex="1" parent="1">
          <mxGeometry x="675" y="320" width="40" height="40" as="geometry" />
        </mxCell>
        <mxCell id="yvvdC9rSGpjuioBhzgut-154" value="" style="endArrow=classic;html=1;rounded=0;fontSize=12;fontStyle=1;horizontal=0;strokeWidth=3;entryX=0.383;entryY=1.05;entryDx=0;entryDy=0;entryPerimeter=0;" edge="1" target="yvvdC9rSGpjuioBhzgut-151" parent="1">
          <mxGeometry width="50" height="50" relative="1" as="geometry">
            <mxPoint x="679.5" y="420" as="sourcePoint" />
            <mxPoint x="680" y="370" as="targetPoint" />
          </mxGeometry>
        </mxCell>
        <mxCell id="yvvdC9rSGpjuioBhzgut-162" value="" style="strokeWidth=5;html=1;shape=mxgraph.flowchart.annotation_1;align=center;pointerEvents=1;rotation=-90;fillColor=#1ba1e2;fontColor=#ffffff;strokeColor=#006EAF;fontStyle=0;labelBorderColor=none;" vertex="1" parent="1">
          <mxGeometry x="640" y="516.25" width="205" height="42.5" as="geometry" />
        </mxCell>
        <mxCell id="yvvdC9rSGpjuioBhzgut-163" value="&lt;font style=&quot;font-size: 20px;&quot;&gt;-3&lt;/font&gt;" style="text;html=1;align=center;verticalAlign=middle;resizable=0;points=[];autosize=1;strokeColor=none;fillColor=none;" vertex="1" parent="1">
          <mxGeometry x="720" y="580" width="40" height="40" as="geometry" />
        </mxCell>
        <mxCell id="yvvdC9rSGpjuioBhzgut-164" value="&lt;span style=&quot;font-size: 20px;&quot;&gt;1&lt;/span&gt;" style="text;html=1;align=center;verticalAlign=middle;resizable=0;points=[];autosize=1;strokeColor=none;fillColor=none;" vertex="1" parent="1">
          <mxGeometry x="727.5" y="600" width="30" height="40" as="geometry" />
        </mxCell>
        <mxCell id="yvvdC9rSGpjuioBhzgut-165" value="&lt;span style=&quot;font-size: 18px;&quot;&gt;/&lt;/span&gt;" style="text;html=1;align=center;verticalAlign=middle;resizable=0;points=[];autosize=1;strokeColor=none;fillColor=none;" vertex="1" parent="1">
          <mxGeometry x="727.5" y="320" width="30" height="40" as="geometry" />
        </mxCell>
        <mxCell id="yvvdC9rSGpjuioBhzgut-166" value="&lt;font style=&quot;font-size: 20px;&quot;&gt;2&lt;/font&gt;" style="text;html=1;align=center;verticalAlign=middle;resizable=0;points=[];autosize=1;strokeColor=none;fillColor=none;" vertex="1" parent="1">
          <mxGeometry x="715" y="320" width="30" height="40" as="geometry" />
        </mxCell>
        <mxCell id="yvvdC9rSGpjuioBhzgut-167" value="&lt;font style=&quot;font-size: 20px;&quot;&gt;-1&lt;/font&gt;" style="text;html=1;align=center;verticalAlign=middle;resizable=0;points=[];autosize=1;strokeColor=none;fillColor=none;" vertex="1" parent="1">
          <mxGeometry x="735" y="320" width="40" height="40" as="geometry" />
        </mxCell>
        <mxCell id="yvvdC9rSGpjuioBhzgut-168" value="" style="endArrow=classic;html=1;rounded=0;fontSize=12;fontStyle=1;horizontal=0;strokeWidth=3;" edge="1" parent="1">
          <mxGeometry width="50" height="50" relative="1" as="geometry">
            <mxPoint x="745" y="360" as="sourcePoint" />
            <mxPoint x="745" y="420" as="targetPoint" />
          </mxGeometry>
        </mxCell>
        <mxCell id="yvvdC9rSGpjuioBhzgut-169" value="&lt;font style=&quot;font-size: 20px;&quot;&gt;-2&lt;/font&gt;" style="text;html=1;align=center;verticalAlign=middle;resizable=0;points=[];autosize=1;strokeColor=none;fillColor=none;" vertex="1" parent="1">
          <mxGeometry x="720" y="558.75" width="40" height="40" as="geometry" />
        </mxCell>
        <mxCell id="yvvdC9rSGpjuioBhzgut-177" value="" style="strokeWidth=5;html=1;shape=mxgraph.flowchart.annotation_1;align=center;pointerEvents=1;rotation=-90;fillColor=#1ba1e2;fontColor=#ffffff;strokeColor=#006EAF;fontStyle=0;labelBorderColor=none;" vertex="1" parent="1">
          <mxGeometry x="697.5" y="516.25" width="205" height="42.5" as="geometry" />
        </mxCell>
        <mxCell id="yvvdC9rSGpjuioBhzgut-178" value="&lt;font style=&quot;font-size: 20px;&quot;&gt;-3&lt;/font&gt;" style="text;html=1;align=center;verticalAlign=middle;resizable=0;points=[];autosize=1;strokeColor=none;fillColor=none;" vertex="1" parent="1">
          <mxGeometry x="777.5" y="580" width="40" height="40" as="geometry" />
        </mxCell>
        <mxCell id="yvvdC9rSGpjuioBhzgut-179" value="&lt;span style=&quot;font-size: 20px;&quot;&gt;1&lt;/span&gt;" style="text;html=1;align=center;verticalAlign=middle;resizable=0;points=[];autosize=1;strokeColor=none;fillColor=none;" vertex="1" parent="1">
          <mxGeometry x="785" y="600" width="30" height="40" as="geometry" />
        </mxCell>
        <mxCell id="yvvdC9rSGpjuioBhzgut-180" value="&lt;span style=&quot;font-size: 18px;&quot;&gt;*&lt;/span&gt;" style="text;html=1;align=center;verticalAlign=middle;resizable=0;points=[];autosize=1;strokeColor=none;fillColor=none;" vertex="1" parent="1">
          <mxGeometry x="785" y="320" width="30" height="40" as="geometry" />
        </mxCell>
        <mxCell id="yvvdC9rSGpjuioBhzgut-181" value="&lt;font style=&quot;font-size: 20px;&quot;&gt;-2&lt;/font&gt;" style="text;html=1;align=center;verticalAlign=middle;resizable=0;points=[];autosize=1;strokeColor=none;fillColor=none;" vertex="1" parent="1">
          <mxGeometry x="777.5" y="558.75" width="40" height="40" as="geometry" />
        </mxCell>
        <mxCell id="yvvdC9rSGpjuioBhzgut-182" value="" style="endArrow=classic;html=1;rounded=0;fontSize=12;fontStyle=1;horizontal=0;strokeWidth=3;entryX=0.383;entryY=1.05;entryDx=0;entryDy=0;entryPerimeter=0;" edge="1" parent="1">
          <mxGeometry width="50" height="50" relative="1" as="geometry">
            <mxPoint x="800.0999999999999" y="418" as="sourcePoint" />
            <mxPoint x="799.5999999999999" y="360" as="targetPoint" />
          </mxGeometry>
        </mxCell>
        <mxCell id="yvvdC9rSGpjuioBhzgut-189" value="" style="strokeWidth=5;html=1;shape=mxgraph.flowchart.annotation_1;align=center;pointerEvents=1;rotation=-90;fillColor=#1ba1e2;fontColor=#ffffff;strokeColor=#006EAF;fontStyle=0;labelBorderColor=none;" vertex="1" parent="1">
          <mxGeometry x="750" y="516.25" width="205" height="42.5" as="geometry" />
        </mxCell>
        <mxCell id="yvvdC9rSGpjuioBhzgut-190" value="&lt;font style=&quot;font-size: 20px;&quot;&gt;-3&lt;/font&gt;" style="text;html=1;align=center;verticalAlign=middle;resizable=0;points=[];autosize=1;strokeColor=none;fillColor=none;" vertex="1" parent="1">
          <mxGeometry x="830" y="580" width="40" height="40" as="geometry" />
        </mxCell>
        <mxCell id="yvvdC9rSGpjuioBhzgut-191" value="&lt;span style=&quot;font-size: 20px;&quot;&gt;1&lt;/span&gt;" style="text;html=1;align=center;verticalAlign=middle;resizable=0;points=[];autosize=1;strokeColor=none;fillColor=none;" vertex="1" parent="1">
          <mxGeometry x="837.5" y="600" width="30" height="40" as="geometry" />
        </mxCell>
        <mxCell id="yvvdC9rSGpjuioBhzgut-192" value="&lt;span style=&quot;font-size: 18px;&quot;&gt;*&lt;/span&gt;" style="text;html=1;align=center;verticalAlign=middle;resizable=0;points=[];autosize=1;strokeColor=none;fillColor=none;" vertex="1" parent="1">
          <mxGeometry x="826.25" y="320" width="30" height="40" as="geometry" />
        </mxCell>
        <mxCell id="yvvdC9rSGpjuioBhzgut-193" value="&lt;font style=&quot;font-size: 20px;&quot;&gt;-2&lt;/font&gt;" style="text;html=1;align=center;verticalAlign=middle;resizable=0;points=[];autosize=1;strokeColor=none;fillColor=none;" vertex="1" parent="1">
          <mxGeometry x="838.75" y="310" width="40" height="40" as="geometry" />
        </mxCell>
        <mxCell id="yvvdC9rSGpjuioBhzgut-194" value="" style="endArrow=classic;html=1;rounded=0;fontSize=12;fontStyle=1;horizontal=0;strokeWidth=3;entryX=0.383;entryY=1.05;entryDx=0;entryDy=0;entryPerimeter=0;" edge="1" parent="1">
          <mxGeometry width="50" height="50" relative="1" as="geometry">
            <mxPoint x="852.5999999999999" y="418" as="sourcePoint" />
            <mxPoint x="852.0999999999999" y="360" as="targetPoint" />
          </mxGeometry>
        </mxCell>
        <mxCell id="yvvdC9rSGpjuioBhzgut-201" value="" style="strokeWidth=5;html=1;shape=mxgraph.flowchart.annotation_1;align=center;pointerEvents=1;rotation=-90;fillColor=#1ba1e2;fontColor=#ffffff;strokeColor=#006EAF;fontStyle=0;labelBorderColor=none;" vertex="1" parent="1">
          <mxGeometry x="810" y="516.25" width="205" height="42.5" as="geometry" />
        </mxCell>
        <mxCell id="yvvdC9rSGpjuioBhzgut-202" value="&lt;font style=&quot;font-size: 20px;&quot;&gt;-3&lt;/font&gt;" style="text;html=1;align=center;verticalAlign=middle;resizable=0;points=[];autosize=1;strokeColor=none;fillColor=none;" vertex="1" parent="1">
          <mxGeometry x="873" y="310" width="40" height="40" as="geometry" />
        </mxCell>
        <mxCell id="yvvdC9rSGpjuioBhzgut-203" value="&lt;span style=&quot;font-size: 20px;&quot;&gt;1&lt;/span&gt;" style="text;html=1;align=center;verticalAlign=middle;resizable=0;points=[];autosize=1;strokeColor=none;fillColor=none;" vertex="1" parent="1">
          <mxGeometry x="897.5" y="600" width="30" height="40" as="geometry" />
        </mxCell>
        <mxCell id="yvvdC9rSGpjuioBhzgut-204" value="&lt;span style=&quot;font-size: 18px;&quot;&gt;*&lt;/span&gt;" style="text;html=1;align=center;verticalAlign=middle;resizable=0;points=[];autosize=1;strokeColor=none;fillColor=none;" vertex="1" parent="1">
          <mxGeometry x="897.5" y="320" width="30" height="40" as="geometry" />
        </mxCell>
        <mxCell id="yvvdC9rSGpjuioBhzgut-205" value="&lt;font style=&quot;font-size: 20px;&quot;&gt;-2&lt;/font&gt;" style="text;html=1;align=center;verticalAlign=middle;resizable=0;points=[];autosize=1;strokeColor=none;fillColor=none;" vertex="1" parent="1">
          <mxGeometry x="910" y="310" width="40" height="40" as="geometry" />
        </mxCell>
        <mxCell id="yvvdC9rSGpjuioBhzgut-206" value="" style="endArrow=classic;html=1;rounded=0;fontSize=12;fontStyle=1;horizontal=0;strokeWidth=3;" edge="1" parent="1">
          <mxGeometry width="50" height="50" relative="1" as="geometry">
            <mxPoint x="912.1300000000001" y="360" as="sourcePoint" />
            <mxPoint x="912.1300000000001" y="420" as="targetPoint" />
          </mxGeometry>
        </mxCell>
        <mxCell id="yvvdC9rSGpjuioBhzgut-207" value="&lt;span style=&quot;font-size: 20px;&quot;&gt;6&lt;/span&gt;" style="text;html=1;align=center;verticalAlign=middle;resizable=0;points=[];autosize=1;strokeColor=none;fillColor=none;" vertex="1" parent="1">
          <mxGeometry x="898" y="580" width="30" height="40" as="geometry" />
        </mxCell>
        <mxCell id="yvvdC9rSGpjuioBhzgut-214" value="" style="strokeWidth=5;html=1;shape=mxgraph.flowchart.annotation_1;align=center;pointerEvents=1;rotation=-90;fillColor=#1ba1e2;fontColor=#ffffff;strokeColor=#006EAF;fontStyle=0;labelBorderColor=none;" vertex="1" parent="1">
          <mxGeometry x="867.5" y="516.25" width="205" height="42.5" as="geometry" />
        </mxCell>
        <mxCell id="yvvdC9rSGpjuioBhzgut-215" value="&lt;span style=&quot;font-size: 20px;&quot;&gt;1&lt;/span&gt;" style="text;html=1;align=center;verticalAlign=middle;resizable=0;points=[];autosize=1;strokeColor=none;fillColor=none;" vertex="1" parent="1">
          <mxGeometry x="955" y="600" width="30" height="40" as="geometry" />
        </mxCell>
        <mxCell id="yvvdC9rSGpjuioBhzgut-216" value="&lt;span style=&quot;font-size: 18px;&quot;&gt;+&lt;/span&gt;" style="text;html=1;align=center;verticalAlign=middle;resizable=0;points=[];autosize=1;strokeColor=none;fillColor=none;" vertex="1" parent="1">
          <mxGeometry x="955" y="320" width="30" height="40" as="geometry" />
        </mxCell>
        <mxCell id="yvvdC9rSGpjuioBhzgut-217" value="&lt;span style=&quot;font-size: 20px;&quot;&gt;6&lt;/span&gt;" style="text;html=1;align=center;verticalAlign=middle;resizable=0;points=[];autosize=1;strokeColor=none;fillColor=none;" vertex="1" parent="1">
          <mxGeometry x="955.5" y="580" width="30" height="40" as="geometry" />
        </mxCell>
        <mxCell id="yvvdC9rSGpjuioBhzgut-218" value="" style="endArrow=classic;html=1;rounded=0;fontSize=12;fontStyle=1;horizontal=0;strokeWidth=3;entryX=0.383;entryY=1.05;entryDx=0;entryDy=0;entryPerimeter=0;" edge="1" parent="1">
          <mxGeometry width="50" height="50" relative="1" as="geometry">
            <mxPoint x="970.6300000000001" y="418" as="sourcePoint" />
            <mxPoint x="970.1300000000001" y="360" as="targetPoint" />
          </mxGeometry>
        </mxCell>
        <mxCell id="yvvdC9rSGpjuioBhzgut-224" value="" style="strokeWidth=5;html=1;shape=mxgraph.flowchart.annotation_1;align=center;pointerEvents=1;rotation=-90;fillColor=#1ba1e2;fontColor=#ffffff;strokeColor=#006EAF;fontStyle=0;labelBorderColor=none;" vertex="1" parent="1">
          <mxGeometry x="920" y="516.25" width="205" height="42.5" as="geometry" />
        </mxCell>
        <mxCell id="yvvdC9rSGpjuioBhzgut-225" value="&lt;span style=&quot;font-size: 20px;&quot;&gt;1&lt;/span&gt;" style="text;html=1;align=center;verticalAlign=middle;resizable=0;points=[];autosize=1;strokeColor=none;fillColor=none;" vertex="1" parent="1">
          <mxGeometry x="1007.5" y="600" width="30" height="40" as="geometry" />
        </mxCell>
        <mxCell id="yvvdC9rSGpjuioBhzgut-226" value="&lt;span style=&quot;font-size: 18px;&quot;&gt;+&lt;/span&gt;" style="text;html=1;align=center;verticalAlign=middle;resizable=0;points=[];autosize=1;strokeColor=none;fillColor=none;" vertex="1" parent="1">
          <mxGeometry x="1001.25" y="320" width="30" height="40" as="geometry" />
        </mxCell>
        <mxCell id="yvvdC9rSGpjuioBhzgut-227" value="&lt;span style=&quot;font-size: 20px;&quot;&gt;6&lt;/span&gt;" style="text;html=1;align=center;verticalAlign=middle;resizable=0;points=[];autosize=1;strokeColor=none;fillColor=none;" vertex="1" parent="1">
          <mxGeometry x="1013.75" y="320" width="30" height="40" as="geometry" />
        </mxCell>
        <mxCell id="yvvdC9rSGpjuioBhzgut-229" value="" style="endArrow=classic;html=1;rounded=0;fontSize=12;fontStyle=1;horizontal=0;strokeWidth=3;entryX=0.383;entryY=1.05;entryDx=0;entryDy=0;entryPerimeter=0;" edge="1" parent="1">
          <mxGeometry width="50" height="50" relative="1" as="geometry">
            <mxPoint x="1022.6299999999999" y="418" as="sourcePoint" />
            <mxPoint x="1022.1299999999999" y="360" as="targetPoint" />
          </mxGeometry>
        </mxCell>
        <mxCell id="yvvdC9rSGpjuioBhzgut-230" value="" style="strokeWidth=5;html=1;shape=mxgraph.flowchart.annotation_1;align=center;pointerEvents=1;rotation=-90;fillColor=#1ba1e2;fontColor=#ffffff;strokeColor=#006EAF;fontStyle=0;labelBorderColor=none;" vertex="1" parent="1">
          <mxGeometry x="977.5" y="516.25" width="205" height="42.5" as="geometry" />
        </mxCell>
        <mxCell id="yvvdC9rSGpjuioBhzgut-231" value="&lt;span style=&quot;font-size: 20px;&quot;&gt;1&lt;/span&gt;" style="text;html=1;align=center;verticalAlign=middle;resizable=0;points=[];autosize=1;strokeColor=none;fillColor=none;" vertex="1" parent="1">
          <mxGeometry x="1050" y="320" width="30" height="40" as="geometry" />
        </mxCell>
        <mxCell id="yvvdC9rSGpjuioBhzgut-232" value="&lt;span style=&quot;font-size: 18px;&quot;&gt;+&lt;/span&gt;" style="text;html=1;align=center;verticalAlign=middle;resizable=0;points=[];autosize=1;strokeColor=none;fillColor=none;" vertex="1" parent="1">
          <mxGeometry x="1058.75" y="320" width="30" height="40" as="geometry" />
        </mxCell>
        <mxCell id="yvvdC9rSGpjuioBhzgut-233" value="&lt;span style=&quot;font-size: 20px;&quot;&gt;6&lt;/span&gt;" style="text;html=1;align=center;verticalAlign=middle;resizable=0;points=[];autosize=1;strokeColor=none;fillColor=none;" vertex="1" parent="1">
          <mxGeometry x="1071.25" y="320" width="30" height="40" as="geometry" />
        </mxCell>
        <mxCell id="yvvdC9rSGpjuioBhzgut-235" value="" style="strokeWidth=5;html=1;shape=mxgraph.flowchart.annotation_1;align=center;pointerEvents=1;rotation=-90;fillColor=#1ba1e2;fontColor=#ffffff;strokeColor=#006EAF;fontStyle=0;labelBorderColor=none;" vertex="1" parent="1">
          <mxGeometry x="1031.25" y="516.25" width="205" height="42.5" as="geometry" />
        </mxCell>
        <mxCell id="yvvdC9rSGpjuioBhzgut-236" value="&lt;span style=&quot;font-size: 20px;&quot;&gt;1&lt;/span&gt;" style="text;html=1;align=center;verticalAlign=middle;resizable=0;points=[];autosize=1;strokeColor=none;fillColor=none;" vertex="1" parent="1">
          <mxGeometry x="1103.75" y="320" width="30" height="40" as="geometry" />
        </mxCell>
        <mxCell id="yvvdC9rSGpjuioBhzgut-237" value="&lt;span style=&quot;font-size: 18px;&quot;&gt;+&lt;/span&gt;" style="text;html=1;align=center;verticalAlign=middle;resizable=0;points=[];autosize=1;strokeColor=none;fillColor=none;" vertex="1" parent="1">
          <mxGeometry x="1112.5" y="320" width="30" height="40" as="geometry" />
        </mxCell>
        <mxCell id="yvvdC9rSGpjuioBhzgut-238" value="&lt;span style=&quot;font-size: 20px;&quot;&gt;6&lt;/span&gt;" style="text;html=1;align=center;verticalAlign=middle;resizable=0;points=[];autosize=1;strokeColor=none;fillColor=none;" vertex="1" parent="1">
          <mxGeometry x="1125" y="320" width="30" height="40" as="geometry" />
        </mxCell>
        <mxCell id="yvvdC9rSGpjuioBhzgut-239" value="" style="endArrow=classic;html=1;rounded=0;fontSize=12;fontStyle=1;horizontal=0;strokeWidth=3;" edge="1" parent="1">
          <mxGeometry width="50" height="50" relative="1" as="geometry">
            <mxPoint x="1133.75" y="360" as="sourcePoint" />
            <mxPoint x="1133.75" y="420" as="targetPoint" />
          </mxGeometry>
        </mxCell>
        <mxCell id="yvvdC9rSGpjuioBhzgut-240" value="&lt;span style=&quot;font-size: 20px;&quot;&gt;7&lt;/span&gt;" style="text;html=1;align=center;verticalAlign=middle;resizable=0;points=[];autosize=1;strokeColor=none;fillColor=none;" vertex="1" parent="1">
          <mxGeometry x="1118.75" y="600" width="30" height="40" as="geometry" />
        </mxCell>
        <mxCell id="yvvdC9rSGpjuioBhzgut-241" value="" style="strokeWidth=5;html=1;shape=mxgraph.flowchart.annotation_1;align=center;pointerEvents=1;rotation=-90;fillColor=#1ba1e2;fontColor=#ffffff;strokeColor=#006EAF;fontStyle=0;labelBorderColor=none;" vertex="1" parent="1">
          <mxGeometry x="1088.75" y="516.25" width="205" height="42.5" as="geometry" />
        </mxCell>
        <mxCell id="yvvdC9rSGpjuioBhzgut-242" value="&lt;span style=&quot;font-size: 18px;&quot;&gt;f&lt;/span&gt;" style="text;html=1;align=center;verticalAlign=middle;resizable=0;points=[];autosize=1;strokeColor=none;fillColor=none;" vertex="1" parent="1">
          <mxGeometry x="1176.25" y="320" width="30" height="40" as="geometry" />
        </mxCell>
        <mxCell id="yvvdC9rSGpjuioBhzgut-244" value="" style="endArrow=classic;html=1;rounded=0;fontSize=12;fontStyle=1;horizontal=0;strokeWidth=3;" edge="1" parent="1">
          <mxGeometry width="50" height="50" relative="1" as="geometry">
            <mxPoint x="1191.25" y="360" as="sourcePoint" />
            <mxPoint x="1191.25" y="420" as="targetPoint" />
          </mxGeometry>
        </mxCell>
        <mxCell id="yvvdC9rSGpjuioBhzgut-245" value="&lt;span style=&quot;font-size: 20px;&quot;&gt;7&lt;/span&gt;" style="text;html=1;align=center;verticalAlign=middle;resizable=0;points=[];autosize=1;strokeColor=none;fillColor=none;" vertex="1" parent="1">
          <mxGeometry x="1176.25" y="600" width="30" height="40" as="geometry" />
        </mxCell>
        <mxCell id="yvvdC9rSGpjuioBhzgut-246" value="&lt;span style=&quot;font-size: 20px;&quot;&gt;3&lt;/span&gt;" style="text;html=1;align=center;verticalAlign=middle;resizable=0;points=[];autosize=1;strokeColor=none;fillColor=none;" vertex="1" parent="1">
          <mxGeometry x="1176.25" y="580" width="30" height="40" as="geometry" />
        </mxCell>
        <mxCell id="yvvdC9rSGpjuioBhzgut-247" value="" style="strokeWidth=5;html=1;shape=mxgraph.flowchart.annotation_1;align=center;pointerEvents=1;rotation=-90;fillColor=#1ba1e2;fontColor=#ffffff;strokeColor=#006EAF;fontStyle=0;labelBorderColor=none;" vertex="1" parent="1">
          <mxGeometry x="1142.5" y="516.25" width="205" height="42.5" as="geometry" />
        </mxCell>
        <mxCell id="yvvdC9rSGpjuioBhzgut-248" value="&lt;span style=&quot;font-size: 18px;&quot;&gt;g&lt;/span&gt;" style="text;html=1;align=center;verticalAlign=middle;resizable=0;points=[];autosize=1;strokeColor=none;fillColor=none;" vertex="1" parent="1">
          <mxGeometry x="1230" y="320" width="30" height="40" as="geometry" />
        </mxCell>
        <mxCell id="yvvdC9rSGpjuioBhzgut-249" value="" style="endArrow=classic;html=1;rounded=0;fontSize=12;fontStyle=1;horizontal=0;strokeWidth=3;" edge="1" parent="1">
          <mxGeometry width="50" height="50" relative="1" as="geometry">
            <mxPoint x="1245" y="360" as="sourcePoint" />
            <mxPoint x="1245" y="420" as="targetPoint" />
          </mxGeometry>
        </mxCell>
        <mxCell id="yvvdC9rSGpjuioBhzgut-250" value="&lt;span style=&quot;font-size: 20px;&quot;&gt;7&lt;/span&gt;" style="text;html=1;align=center;verticalAlign=middle;resizable=0;points=[];autosize=1;strokeColor=none;fillColor=none;" vertex="1" parent="1">
          <mxGeometry x="1230" y="600" width="30" height="40" as="geometry" />
        </mxCell>
        <mxCell id="yvvdC9rSGpjuioBhzgut-251" value="&lt;span style=&quot;font-size: 20px;&quot;&gt;3&lt;/span&gt;" style="text;html=1;align=center;verticalAlign=middle;resizable=0;points=[];autosize=1;strokeColor=none;fillColor=none;" vertex="1" parent="1">
          <mxGeometry x="1230" y="580" width="30" height="40" as="geometry" />
        </mxCell>
        <mxCell id="yvvdC9rSGpjuioBhzgut-252" value="&lt;span style=&quot;font-size: 20px;&quot;&gt;4&lt;/span&gt;" style="text;html=1;align=center;verticalAlign=middle;resizable=0;points=[];autosize=1;strokeColor=none;fillColor=none;" vertex="1" parent="1">
          <mxGeometry x="1230" y="558.75" width="30" height="40" as="geometry" />
        </mxCell>
        <mxCell id="yvvdC9rSGpjuioBhzgut-260" value="" style="strokeWidth=5;html=1;shape=mxgraph.flowchart.annotation_1;align=center;pointerEvents=1;rotation=-90;fillColor=#1ba1e2;fontColor=#ffffff;strokeColor=#006EAF;fontStyle=0;labelBorderColor=none;" vertex="1" parent="1">
          <mxGeometry x="1200" y="516.25" width="205" height="42.5" as="geometry" />
        </mxCell>
        <mxCell id="yvvdC9rSGpjuioBhzgut-261" value="&lt;span style=&quot;font-size: 18px;&quot;&gt;/&lt;/span&gt;" style="text;html=1;align=center;verticalAlign=middle;resizable=0;points=[];autosize=1;strokeColor=none;fillColor=none;" vertex="1" parent="1">
          <mxGeometry x="1287.5" y="320" width="30" height="40" as="geometry" />
        </mxCell>
        <mxCell id="yvvdC9rSGpjuioBhzgut-262" value="&lt;span style=&quot;font-size: 20px;&quot;&gt;7&lt;/span&gt;" style="text;html=1;align=center;verticalAlign=middle;resizable=0;points=[];autosize=1;strokeColor=none;fillColor=none;" vertex="1" parent="1">
          <mxGeometry x="1287.5" y="600" width="30" height="40" as="geometry" />
        </mxCell>
        <mxCell id="yvvdC9rSGpjuioBhzgut-263" value="&lt;span style=&quot;font-size: 20px;&quot;&gt;3&lt;/span&gt;" style="text;html=1;align=center;verticalAlign=middle;resizable=0;points=[];autosize=1;strokeColor=none;fillColor=none;" vertex="1" parent="1">
          <mxGeometry x="1287.5" y="580" width="30" height="40" as="geometry" />
        </mxCell>
        <mxCell id="yvvdC9rSGpjuioBhzgut-264" value="&lt;span style=&quot;font-size: 20px;&quot;&gt;4&lt;/span&gt;" style="text;html=1;align=center;verticalAlign=middle;resizable=0;points=[];autosize=1;strokeColor=none;fillColor=none;" vertex="1" parent="1">
          <mxGeometry x="1287.5" y="558.75" width="30" height="40" as="geometry" />
        </mxCell>
        <mxCell id="yvvdC9rSGpjuioBhzgut-265" value="" style="endArrow=classic;html=1;rounded=0;fontSize=12;fontStyle=1;horizontal=0;strokeWidth=3;entryX=0.383;entryY=1.05;entryDx=0;entryDy=0;entryPerimeter=0;" edge="1" parent="1">
          <mxGeometry width="50" height="50" relative="1" as="geometry">
            <mxPoint x="1302.6599999999999" y="418" as="sourcePoint" />
            <mxPoint x="1302.1599999999999" y="360" as="targetPoint" />
          </mxGeometry>
        </mxCell>
        <mxCell id="yvvdC9rSGpjuioBhzgut-277" value="" style="strokeWidth=5;html=1;shape=mxgraph.flowchart.annotation_1;align=center;pointerEvents=1;rotation=-90;fillColor=#1ba1e2;fontColor=#ffffff;strokeColor=#006EAF;fontStyle=0;labelBorderColor=none;" vertex="1" parent="1">
          <mxGeometry x="1260" y="516.25" width="205" height="42.5" as="geometry" />
        </mxCell>
        <mxCell id="yvvdC9rSGpjuioBhzgut-278" value="&lt;span style=&quot;font-size: 18px;&quot;&gt;/&lt;/span&gt;" style="text;html=1;align=center;verticalAlign=middle;resizable=0;points=[];autosize=1;strokeColor=none;fillColor=none;" vertex="1" parent="1">
          <mxGeometry x="1340" y="320" width="30" height="40" as="geometry" />
        </mxCell>
        <mxCell id="yvvdC9rSGpjuioBhzgut-279" value="&lt;span style=&quot;font-size: 20px;&quot;&gt;7&lt;/span&gt;" style="text;html=1;align=center;verticalAlign=middle;resizable=0;points=[];autosize=1;strokeColor=none;fillColor=none;" vertex="1" parent="1">
          <mxGeometry x="1347.5" y="600" width="30" height="40" as="geometry" />
        </mxCell>
        <mxCell id="yvvdC9rSGpjuioBhzgut-280" value="&lt;span style=&quot;font-size: 20px;&quot;&gt;3&lt;/span&gt;" style="text;html=1;align=center;verticalAlign=middle;resizable=0;points=[];autosize=1;strokeColor=none;fillColor=none;" vertex="1" parent="1">
          <mxGeometry x="1347.5" y="580" width="30" height="40" as="geometry" />
        </mxCell>
        <mxCell id="yvvdC9rSGpjuioBhzgut-281" value="&lt;span style=&quot;font-size: 20px;&quot;&gt;4&lt;/span&gt;" style="text;html=1;align=center;verticalAlign=middle;resizable=0;points=[];autosize=1;strokeColor=none;fillColor=none;" vertex="1" parent="1">
          <mxGeometry x="1355" y="320" width="30" height="40" as="geometry" />
        </mxCell>
        <mxCell id="yvvdC9rSGpjuioBhzgut-282" value="" style="endArrow=classic;html=1;rounded=0;fontSize=12;fontStyle=1;horizontal=0;strokeWidth=3;entryX=0.383;entryY=1.05;entryDx=0;entryDy=0;entryPerimeter=0;" edge="1" parent="1">
          <mxGeometry width="50" height="50" relative="1" as="geometry">
            <mxPoint x="1363" y="418" as="sourcePoint" />
            <mxPoint x="1362.5" y="360" as="targetPoint" />
          </mxGeometry>
        </mxCell>
        <mxCell id="yvvdC9rSGpjuioBhzgut-283" value="" style="strokeWidth=5;html=1;shape=mxgraph.flowchart.annotation_1;align=center;pointerEvents=1;rotation=-90;fillColor=#1ba1e2;fontColor=#ffffff;strokeColor=#006EAF;fontStyle=0;labelBorderColor=none;" vertex="1" parent="1">
          <mxGeometry x="1317.5" y="516.25" width="205" height="42.5" as="geometry" />
        </mxCell>
        <mxCell id="yvvdC9rSGpjuioBhzgut-284" value="&lt;span style=&quot;font-size: 18px;&quot;&gt;/&lt;/span&gt;" style="text;html=1;align=center;verticalAlign=middle;resizable=0;points=[];autosize=1;strokeColor=none;fillColor=none;" vertex="1" parent="1">
          <mxGeometry x="1407.5" y="320" width="30" height="40" as="geometry" />
        </mxCell>
        <mxCell id="yvvdC9rSGpjuioBhzgut-285" value="&lt;span style=&quot;font-size: 20px;&quot;&gt;7&lt;/span&gt;" style="text;html=1;align=center;verticalAlign=middle;resizable=0;points=[];autosize=1;strokeColor=none;fillColor=none;" vertex="1" parent="1">
          <mxGeometry x="1405" y="600" width="30" height="40" as="geometry" />
        </mxCell>
        <mxCell id="yvvdC9rSGpjuioBhzgut-286" value="&lt;span style=&quot;font-size: 20px;&quot;&gt;3&lt;/span&gt;" style="text;html=1;align=center;verticalAlign=middle;resizable=0;points=[];autosize=1;strokeColor=none;fillColor=none;" vertex="1" parent="1">
          <mxGeometry x="1392.5" y="320" width="30" height="40" as="geometry" />
        </mxCell>
        <mxCell id="yvvdC9rSGpjuioBhzgut-287" value="&lt;span style=&quot;font-size: 20px;&quot;&gt;4&lt;/span&gt;" style="text;html=1;align=center;verticalAlign=middle;resizable=0;points=[];autosize=1;strokeColor=none;fillColor=none;" vertex="1" parent="1">
          <mxGeometry x="1422.5" y="320" width="30" height="40" as="geometry" />
        </mxCell>
        <mxCell id="yvvdC9rSGpjuioBhzgut-289" value="" style="strokeWidth=5;html=1;shape=mxgraph.flowchart.annotation_1;align=center;pointerEvents=1;rotation=-90;fillColor=#1ba1e2;fontColor=#ffffff;strokeColor=#006EAF;fontStyle=0;labelBorderColor=none;" vertex="1" parent="1">
          <mxGeometry x="1377.5" y="516.25" width="205" height="42.5" as="geometry" />
        </mxCell>
        <mxCell id="yvvdC9rSGpjuioBhzgut-290" value="&lt;span style=&quot;font-size: 18px;&quot;&gt;/&lt;/span&gt;" style="text;html=1;align=center;verticalAlign=middle;resizable=0;points=[];autosize=1;strokeColor=none;fillColor=none;" vertex="1" parent="1">
          <mxGeometry x="1467.5" y="320" width="30" height="40" as="geometry" />
        </mxCell>
        <mxCell id="yvvdC9rSGpjuioBhzgut-291" value="&lt;span style=&quot;font-size: 20px;&quot;&gt;7&lt;/span&gt;" style="text;html=1;align=center;verticalAlign=middle;resizable=0;points=[];autosize=1;strokeColor=none;fillColor=none;" vertex="1" parent="1">
          <mxGeometry x="1465" y="600" width="30" height="40" as="geometry" />
        </mxCell>
        <mxCell id="yvvdC9rSGpjuioBhzgut-292" value="&lt;span style=&quot;font-size: 20px;&quot;&gt;3&lt;/span&gt;" style="text;html=1;align=center;verticalAlign=middle;resizable=0;points=[];autosize=1;strokeColor=none;fillColor=none;" vertex="1" parent="1">
          <mxGeometry x="1452.5" y="320" width="30" height="40" as="geometry" />
        </mxCell>
        <mxCell id="yvvdC9rSGpjuioBhzgut-293" value="&lt;span style=&quot;font-size: 20px;&quot;&gt;4&lt;/span&gt;" style="text;html=1;align=center;verticalAlign=middle;resizable=0;points=[];autosize=1;strokeColor=none;fillColor=none;" vertex="1" parent="1">
          <mxGeometry x="1482.5" y="320" width="30" height="40" as="geometry" />
        </mxCell>
        <mxCell id="yvvdC9rSGpjuioBhzgut-294" value="" style="endArrow=classic;html=1;rounded=0;fontSize=12;fontStyle=1;horizontal=0;strokeWidth=3;" edge="1" parent="1">
          <mxGeometry width="50" height="50" relative="1" as="geometry">
            <mxPoint x="1482.5" y="360" as="sourcePoint" />
            <mxPoint x="1482.5" y="420" as="targetPoint" />
          </mxGeometry>
        </mxCell>
        <mxCell id="yvvdC9rSGpjuioBhzgut-295" value="&lt;span style=&quot;font-size: 11px;&quot;&gt;0.75&lt;/span&gt;" style="text;html=1;align=center;verticalAlign=middle;resizable=0;points=[];autosize=1;strokeColor=none;fillColor=none;fontSize=11;" vertex="1" parent="1">
          <mxGeometry x="1460" y="585" width="40" height="30" as="geometry" />
        </mxCell>
        <mxCell id="yvvdC9rSGpjuioBhzgut-303" value="" style="strokeWidth=5;html=1;shape=mxgraph.flowchart.annotation_1;align=center;pointerEvents=1;rotation=-90;fillColor=#1ba1e2;fontColor=#ffffff;strokeColor=#006EAF;fontStyle=0;labelBorderColor=none;" vertex="1" parent="1">
          <mxGeometry x="1437.5" y="516.25" width="205" height="42.5" as="geometry" />
        </mxCell>
        <mxCell id="yvvdC9rSGpjuioBhzgut-304" value="&lt;span style=&quot;font-size: 18px;&quot;&gt;+&lt;/span&gt;" style="text;html=1;align=center;verticalAlign=middle;resizable=0;points=[];autosize=1;strokeColor=none;fillColor=none;" vertex="1" parent="1">
          <mxGeometry x="1527.5" y="320" width="30" height="40" as="geometry" />
        </mxCell>
        <mxCell id="yvvdC9rSGpjuioBhzgut-305" value="&lt;span style=&quot;font-size: 20px;&quot;&gt;7&lt;/span&gt;" style="text;html=1;align=center;verticalAlign=middle;resizable=0;points=[];autosize=1;strokeColor=none;fillColor=none;" vertex="1" parent="1">
          <mxGeometry x="1525" y="600" width="30" height="40" as="geometry" />
        </mxCell>
        <mxCell id="yvvdC9rSGpjuioBhzgut-306" value="&lt;span style=&quot;font-size: 11px;&quot;&gt;0.75&lt;/span&gt;" style="text;html=1;align=center;verticalAlign=middle;resizable=0;points=[];autosize=1;strokeColor=none;fillColor=none;fontSize=11;" vertex="1" parent="1">
          <mxGeometry x="1520" y="585" width="40" height="30" as="geometry" />
        </mxCell>
        <mxCell id="yvvdC9rSGpjuioBhzgut-307" value="" style="endArrow=classic;html=1;rounded=0;fontSize=12;fontStyle=1;horizontal=0;strokeWidth=3;entryX=0.383;entryY=1.05;entryDx=0;entryDy=0;entryPerimeter=0;" edge="1" parent="1">
          <mxGeometry width="50" height="50" relative="1" as="geometry">
            <mxPoint x="1540.1599999999999" y="418" as="sourcePoint" />
            <mxPoint x="1539.6599999999999" y="360" as="targetPoint" />
          </mxGeometry>
        </mxCell>
        <mxCell id="yvvdC9rSGpjuioBhzgut-313" value="" style="strokeWidth=5;html=1;shape=mxgraph.flowchart.annotation_1;align=center;pointerEvents=1;rotation=-90;fillColor=#1ba1e2;fontColor=#ffffff;strokeColor=#006EAF;fontStyle=0;labelBorderColor=none;" vertex="1" parent="1">
          <mxGeometry x="1497.5" y="516.25" width="205" height="42.5" as="geometry" />
        </mxCell>
        <mxCell id="yvvdC9rSGpjuioBhzgut-314" value="&lt;span style=&quot;font-size: 18px;&quot;&gt;+&lt;/span&gt;" style="text;html=1;align=center;verticalAlign=middle;resizable=0;points=[];autosize=1;strokeColor=none;fillColor=none;" vertex="1" parent="1">
          <mxGeometry x="1571.25" y="320" width="30" height="40" as="geometry" />
        </mxCell>
        <mxCell id="yvvdC9rSGpjuioBhzgut-315" value="&lt;span style=&quot;font-size: 20px;&quot;&gt;7&lt;/span&gt;" style="text;html=1;align=center;verticalAlign=middle;resizable=0;points=[];autosize=1;strokeColor=none;fillColor=none;" vertex="1" parent="1">
          <mxGeometry x="1585" y="600" width="30" height="40" as="geometry" />
        </mxCell>
        <mxCell id="yvvdC9rSGpjuioBhzgut-316" value="&lt;span style=&quot;font-size: 11px;&quot;&gt;0.75&lt;/span&gt;" style="text;html=1;align=center;verticalAlign=middle;resizable=0;points=[];autosize=1;strokeColor=none;fillColor=none;fontSize=11;" vertex="1" parent="1">
          <mxGeometry x="1588.75" y="325" width="40" height="30" as="geometry" />
        </mxCell>
        <mxCell id="yvvdC9rSGpjuioBhzgut-317" value="" style="endArrow=classic;html=1;rounded=0;fontSize=12;fontStyle=1;horizontal=0;strokeWidth=3;entryX=0.383;entryY=1.05;entryDx=0;entryDy=0;entryPerimeter=0;" edge="1" parent="1">
          <mxGeometry width="50" height="50" relative="1" as="geometry">
            <mxPoint x="1600.1599999999999" y="418" as="sourcePoint" />
            <mxPoint x="1599.6599999999999" y="360" as="targetPoint" />
          </mxGeometry>
        </mxCell>
        <mxCell id="yvvdC9rSGpjuioBhzgut-318" value="" style="strokeWidth=5;html=1;shape=mxgraph.flowchart.annotation_1;align=center;pointerEvents=1;rotation=-90;fillColor=#1ba1e2;fontColor=#ffffff;strokeColor=#006EAF;fontStyle=0;labelBorderColor=none;" vertex="1" parent="1">
          <mxGeometry x="1555" y="516.25" width="205" height="42.5" as="geometry" />
        </mxCell>
        <mxCell id="yvvdC9rSGpjuioBhzgut-319" value="&lt;span style=&quot;font-size: 18px;&quot;&gt;+&lt;/span&gt;" style="text;html=1;align=center;verticalAlign=middle;resizable=0;points=[];autosize=1;strokeColor=none;fillColor=none;" vertex="1" parent="1">
          <mxGeometry x="1642.5" y="320" width="30" height="40" as="geometry" />
        </mxCell>
        <mxCell id="yvvdC9rSGpjuioBhzgut-320" value="&lt;span style=&quot;font-size: 20px;&quot;&gt;7&lt;/span&gt;" style="text;html=1;align=center;verticalAlign=middle;resizable=0;points=[];autosize=1;strokeColor=none;fillColor=none;" vertex="1" parent="1">
          <mxGeometry x="1628.75" y="320" width="30" height="40" as="geometry" />
        </mxCell>
        <mxCell id="yvvdC9rSGpjuioBhzgut-321" value="&lt;span style=&quot;font-size: 11px;&quot;&gt;0.75&lt;/span&gt;" style="text;html=1;align=center;verticalAlign=middle;resizable=0;points=[];autosize=1;strokeColor=none;fillColor=none;fontSize=11;" vertex="1" parent="1">
          <mxGeometry x="1660" y="325" width="40" height="30" as="geometry" />
        </mxCell>
        <mxCell id="yvvdC9rSGpjuioBhzgut-323" value="" style="strokeWidth=5;html=1;shape=mxgraph.flowchart.annotation_1;align=center;pointerEvents=1;rotation=-90;fillColor=#1ba1e2;fontColor=#ffffff;strokeColor=#006EAF;fontStyle=0;labelBorderColor=none;" vertex="1" parent="1">
          <mxGeometry x="1615" y="516.25" width="205" height="42.5" as="geometry" />
        </mxCell>
        <mxCell id="yvvdC9rSGpjuioBhzgut-324" value="&lt;span style=&quot;font-size: 18px;&quot;&gt;+&lt;/span&gt;" style="text;html=1;align=center;verticalAlign=middle;resizable=0;points=[];autosize=1;strokeColor=none;fillColor=none;" vertex="1" parent="1">
          <mxGeometry x="1702.5" y="320" width="30" height="40" as="geometry" />
        </mxCell>
        <mxCell id="yvvdC9rSGpjuioBhzgut-325" value="&lt;span style=&quot;font-size: 20px;&quot;&gt;7&lt;/span&gt;" style="text;html=1;align=center;verticalAlign=middle;resizable=0;points=[];autosize=1;strokeColor=none;fillColor=none;" vertex="1" parent="1">
          <mxGeometry x="1688.75" y="320" width="30" height="40" as="geometry" />
        </mxCell>
        <mxCell id="yvvdC9rSGpjuioBhzgut-326" value="&lt;span style=&quot;font-size: 11px;&quot;&gt;0.75&lt;/span&gt;" style="text;html=1;align=center;verticalAlign=middle;resizable=0;points=[];autosize=1;strokeColor=none;fillColor=none;fontSize=11;" vertex="1" parent="1">
          <mxGeometry x="1720" y="325" width="40" height="30" as="geometry" />
        </mxCell>
        <mxCell id="yvvdC9rSGpjuioBhzgut-327" value="" style="endArrow=classic;html=1;rounded=0;fontSize=12;fontStyle=1;horizontal=0;strokeWidth=3;" edge="1" parent="1">
          <mxGeometry width="50" height="50" relative="1" as="geometry">
            <mxPoint x="1719.31" y="360" as="sourcePoint" />
            <mxPoint x="1719.31" y="420" as="targetPoint" />
          </mxGeometry>
        </mxCell>
        <mxCell id="yvvdC9rSGpjuioBhzgut-328" value="&lt;font style=&quot;font-size: 13px;&quot;&gt;7.75&lt;/font&gt;" style="text;html=1;align=center;verticalAlign=middle;resizable=0;points=[];autosize=1;strokeColor=none;fillColor=none;" vertex="1" parent="1">
          <mxGeometry x="1692.5" y="610" width="50" height="30" as="geometry" />
        </mxCell>
      </root>
    </mxGraphModel>
  </diagram>
</mxfile>
